<svg xmlns="http://www.w3.org/2000/svg" xmlns:xlink="http://www.w3.org/1999/xlink" width="753" height="188" viewBox="0 0 753 188">
  <defs>
    <clipPath id="clip-Web_1920_1">
      <rect width="753" height="188"/>
    </clipPath>
  </defs>
  <g id="Web_1920_1" data-name="Web 1920 – 1" clip-path="url(#clip-Web_1920_1)">
    <text id="BECKI" transform="translate(-9 86)" fill="#707070" font-size="120" font-family="HelveticaNeue-Bold, Helvetica Neue" font-weight="700"><tspan x="0" y="0">BECKI</tspan></text>
    <text id="BALDWIN" transform="translate(-9 188)" fill="#f79d8b" font-size="120" font-family="HelveticaNeue-Bold, Helvetica Neue" font-weight="700"><tspan x="0" y="0">BALDWIN</tspan></text>
    <path id="stretching" d="M174.761,170.058H154.252c-.971-3.63-2.029-6.548-5.83-7.354l-6.513-1.381-2.776-3.556-14.942-31.8c-1.429-3.04-9.919-.83-8.491,2.21l13.253,26.308-5.612.1L90.765,112.778a2.625,2.625,0,0,0-4.169,0L54.021,154.591l-5.612-.1,26.358-50.407H102.6l13.1,24.1c1.394,2.966,9.916.823,8.491-2.21L110.628,97.109V73.781h45.883c7.337,0,13.306-8.807,13.306-16.141,0-1.435-1.163-6.386-2.6-6.386h-62.81c-1.033-1.221,3.459-6.589,3.459-11.237V27.291a16.831,16.831,0,0,0-4.754-11.73c.394-1.205-.345-4.367-.345-5.639C102.769,3.29,94.531-4,87.9-4S72.076,3.29,72.076,9.922a35.2,35.2,0,0,0,.3,4.54,16.849,16.849,0,0,0-5.8,11.041,9.371,9.371,0,0,0,1.347,5.956v8.558c0,4.987,2.269,7.559,5.829,10.529-.993.776-.005-.245-.811.709H41.285c-3.359,0-3.359,8.984,0,8.984H71.751a18.069,18.069,0,0,0-1.2,5.526l-49.7-.021c-3.563,0-4.7-2.308-5.789-5.506H41.533c3.359,0,3.359-8.985,0-8.985H10.14c-1.435,0-2.6,4.951-2.6,6.386,0,7.334,4.075,16.141,11.411,16.141l46.831.02V97.115L38.23,157.767l-.882,2.609L30.834,162.7a10.236,10.236,0,0,0-7.723,7.354H2.6c-1.435,0-2.6,3.057-2.6,4.492s1.163,12.068,2.6,12.068H174.761c1.435,0,2.6-10.633,2.6-12.068s-1.163-4.492-2.6-4.492Zm-86.08-45.7,29.379,36.278,2.149,5.694a6.7,6.7,0,0,0,.493,3.728H56.66a6.7,6.7,0,0,0,.493-3.728l2.149-5.694Zm.076-29.26ZM162.3,60.238c-1.086,3.2-2.226,5.506-5.789,5.506h-49.7a18.031,18.031,0,0,0-1.2-5.506ZM87.9,4.985a6.842,6.842,0,0,1,6.836,6.831c0,.121,0,.242-.01.362a16.932,16.932,0,0,0-13.648-.654A6.837,6.837,0,0,1,87.9,4.985ZM75.532,25.106c.635-5.965,5.641-6.675,11.644-6.675,6.457,0,11.709,2.408,11.709,8.861v-.769L80.509,27.857c-2.752.484-5.274.029-4.978-2.752ZM76.908,36.47a9.437,9.437,0,0,0,4.5.294l17.475-2.125v5.378c0,6.057-4.927,9.09-10.993,9.09s-10.984-3.033-10.984-9.09ZM87.9,58.09a16.086,16.086,0,0,0,6.153-1.219c4.573,2.088,7.591,4.827,7.591,9.9V94.224H75.715V66.77c0-4.792,2.7-7.332,6.921-9.562A16.117,16.117,0,0,0,87.9,58.09ZM30.6,171.952a4.992,4.992,0,0,1,3.207-2.271l7.727-1.638a2.6,2.6,0,0,0,1.776-1.362l2.534-4.976h4.433c-.784.858-2.108,2.564-2.108,3.8V169.2a2.761,2.761,0,0,1-2.759,2.757H30.6Zm101.354,0a2.761,2.761,0,0,1-2.759-2.757,8.871,8.871,0,0,0-2.108-7.491h4.433l2.534,4.976a2.6,2.6,0,0,0,1.776,1.362l7.727,1.639a4.99,4.99,0,0,1,3.207,2.271H131.953Z" transform="translate(576 3.999)" fill="#f79d8b"/>
  </g>
</svg>
